<svg width="188" height="100" viewBox="0 0 188 100" version="1.1" xmlns="http://www.w3.org/2000/svg" xmlns:xlink="http://www.w3.org/1999/xlink">
<g id="Canvas" fill="none">
<g id="logo">
<g id="A // L">
<path d="M 12.36 25L 10.584 19.576L 3.816 19.576L 2.04 25L 1.128 25L 6.624 8.248L 7.8 8.248L 13.272 25L 12.36 25ZM 7.248 9.208L 7.128 9.208L 4.032 18.808L 10.368 18.808L 7.248 9.208ZM 21.6052 28.312L 30.3892 6.76L 31.1572 6.76L 22.3732 28.312L 21.6052 28.312ZM 31.1959 28.312L 39.9799 6.76L 40.7479 6.76L 31.9639 28.312L 31.1959 28.312ZM 51.3131 25L 51.3131 8.248L 52.1771 8.248L 52.1771 24.208L 60.6731 24.208L 60.6731 25L 51.3131 25Z" transform="translate(32 16) scale(2)" fill="white"/>
</g>
<g id="Rectangle">
<rect x="0.25" y="0.25" width="93.5" height="49.5" stroke-width="0.5" transform="scale(2)" stroke="white"/>
</g>
</g>
</g>
</svg>

